<svg height="480pt" viewBox="0 0 480 480" width="480pt" xmlns="http://www.w3.org/2000/svg" xmlns:xlink="http://www.w3.org/1999/xlink"><linearGradient id="a"><stop offset="0" stop-color="#e93e3a"/><stop offset=".35" stop-color="#ed683c"/><stop offset=".7" stop-color="#f3903f"/><stop offset="1" stop-color="#fdc70c"/></linearGradient><linearGradient id="b" gradientUnits="userSpaceOnUse" x1="360" x2="360" xlink:href="#a" y1="481.872" y2="-12.904"/><linearGradient id="c" gradientUnits="userSpaceOnUse" x1="296" x2="296" xlink:href="#a" y1="481.872" y2="-12.904"/><linearGradient id="d" gradientUnits="userSpaceOnUse" x1="424" x2="424" xlink:href="#a" y1="481.872" y2="-12.904"/><linearGradient id="e" gradientUnits="userSpaceOnUse" x1="240" x2="240" xlink:href="#a" y1="481.872" y2="-12.904"/><linearGradient id="f" gradientUnits="userSpaceOnUse" x1="128" x2="128" xlink:href="#a" y1="481.872" y2="-12.904"/><linearGradient id="g" gradientUnits="userSpaceOnUse" x1="80" x2="80" xlink:href="#a" y1="481.872" y2="-12.904"/><linearGradient id="h" gradientUnits="userSpaceOnUse" x1="144" x2="144" xlink:href="#a" y1="481.872" y2="-12.904"/><linearGradient id="i" gradientUnits="userSpaceOnUse" x1="64" x2="64" xlink:href="#a" y1="481.872" y2="-12.904"/><path d="m440 176h-160c-4.417969 0-8 3.582031-8 8v48c0 4.417969 3.582031 8 8 8h160c4.417969 0 8-3.582031 8-8v-48c0-4.417969-3.582031-8-8-8zm-8 48h-144v-32h144zm0 0" fill="url(#b)"/><path d="m296 256c-13.253906 0-24 10.746094-24 24s10.746094 24 24 24 24-10.746094 24-24-10.746094-24-24-24zm0 32c-4.417969 0-8-3.582031-8-8s3.582031-8 8-8 8 3.582031 8 8-3.582031 8-8 8zm0 0" fill="url(#c)"/><path d="m360 256c-13.253906 0-24 10.746094-24 24s10.746094 24 24 24 24-10.746094 24-24-10.746094-24-24-24zm0 32c-4.417969 0-8-3.582031-8-8s3.582031-8 8-8 8 3.582031 8 8-3.582031 8-8 8zm0 0" fill="url(#b)"/><path d="m424 256c-13.253906 0-24 10.746094-24 24s10.746094 24 24 24 24-10.746094 24-24-10.746094-24-24-24zm0 32c-4.417969 0-8-3.582031-8-8s3.582031-8 8-8 8 3.582031 8 8-3.582031 8-8 8zm0 0" fill="url(#d)"/><path d="m296 312c-13.253906 0-24 10.746094-24 24s10.746094 24 24 24 24-10.746094 24-24-10.746094-24-24-24zm0 32c-4.417969 0-8-3.582031-8-8s3.582031-8 8-8 8 3.582031 8 8-3.582031 8-8 8zm0 0" fill="url(#c)"/><path d="m360 312c-13.253906 0-24 10.746094-24 24s10.746094 24 24 24 24-10.746094 24-24-10.746094-24-24-24zm0 32c-4.417969 0-8-3.582031-8-8s3.582031-8 8-8 8 3.582031 8 8-3.582031 8-8 8zm0 0" fill="url(#b)"/><path d="m424 312c-13.253906 0-24 10.746094-24 24s10.746094 24 24 24 24-10.746094 24-24-10.746094-24-24-24zm0 32c-4.417969 0-8-3.582031-8-8s3.582031-8 8-8 8 3.582031 8 8-3.582031 8-8 8zm0 0" fill="url(#d)"/><path d="m296 368c-13.253906 0-24 10.746094-24 24s10.746094 24 24 24 24-10.746094 24-24-10.746094-24-24-24zm0 32c-4.417969 0-8-3.582031-8-8s3.582031-8 8-8 8 3.582031 8 8-3.582031 8-8 8zm0 0" fill="url(#c)"/><path d="m360 368c-13.253906 0-24 10.746094-24 24s10.746094 24 24 24 24-10.746094 24-24-10.746094-24-24-24zm0 32c-4.417969 0-8-3.582031-8-8s3.582031-8 8-8 8 3.582031 8 8-3.582031 8-8 8zm0 0" fill="url(#b)"/><path d="m424 368c-13.253906 0-24 10.746094-24 24s10.746094 24 24 24 24-10.746094 24-24-10.746094-24-24-24zm0 32c-4.417969 0-8-3.582031-8-8s3.582031-8 8-8 8 3.582031 8 8-3.582031 8-8 8zm0 0" fill="url(#d)"/><path d="m456 144h-88v-24c-.105469-.863281-.277344-1.722656-.511719-2.558594-.089843-.257812-.152343-.511718-.265625-.761718-.386718-.867188-.929687-1.660157-1.597656-2.335938l-112-112c-.683594-.671875-1.480469-1.210938-2.351562-1.601562-.234376-.101563-.472657-.167969-.722657-.253907-.835937-.226562-1.6875-.3906248-2.550781-.488281h-208c-22.082031.0273438-39.9726562 17.917969-40 40v400c.0273438 22.082031 17.917969 39.972656 40 40h288c19-.023438 35.371094-13.386719 39.199219-32h88.800781c13.253906 0 24-10.746094 24-24v-256c0-13.253906-10.746094-24-24-24zm-115.3125-32h-60.6875c-13.253906 0-24-10.746094-24-24v-60.6875zm-12.6875 352h-288c-13.253906 0-24-10.746094-24-24v-400c0-13.253906 10.746094-24 24-24h200v72c.027344 22.082031 17.917969 39.972656 40 40h72v16h-88c-13.253906 0-24 10.746094-24 24v256c0 13.253906 10.746094 24 24 24h86.527344c-3.378906 9.554688-12.394532 15.957031-22.527344 16zm136-40c0 4.417969-3.582031 8-8 8h-192c-4.417969 0-8-3.582031-8-8v-256c0-4.417969 3.582031-8 8-8h192c4.417969 0 8 3.582031 8 8zm0 0" fill="url(#e)"/><path d="m160 248v-8h8c13.253906 0 24-10.746094 24-24v-56c0-4.417969-3.582031-8-8-8-7.304688 0-14.289062 2.984375-19.335938 8.265625-2.121093 2.632813-5.308593 4.179687-8.6875 4.214844-3.511718.101562-6.945312-1.03125-9.703124-3.199219-11.011719-7.65625-25.617188-7.65625-36.625 0-2.75 2.164062-6.171876 3.296875-9.671876 3.199219-3.375-.039063-6.554687-1.585938-8.664062-4.214844-5.039062-5.277344-12.015625-8.265625-19.3125-8.265625-4.417969 0-8 3.582031-8 8v56c0 13.253906 10.746094 24 24 24h8v8c-30.914062.035156-55.964844 25.085938-56 56v64c.027344 22.082031 17.917969 39.972656 40 40h96c22.082031-.027344 39.972656-17.917969 40-40v-64c-.035156-30.914062-25.085938-55.964844-56-56zm-80-32v-44.375l.664062.582031c5.039063 5.292969 12.027344 8.28125 19.335938 8.273438 6.554688.09375 12.96875-1.917969 18.296875-5.738281 5.746094-4.296876 13.636719-4.296876 19.382813 0 5.335937 3.820312 11.757812 5.832031 18.320312 5.738281 7.304688.003906 14.292969-2.988281 19.335938-8.273438l.664062-.605469v44.398438c0 4.417969-3.582031 8-8 8h-14.238281l6.078125-30.398438-15.679688-3.203124-6.71875 33.601562h-18.882812l-6.71875-33.601562-15.679688 3.136718 6.078125 30.402344h-14.238281c-4.394531 0-7.964844-3.542969-8-7.9375zm32 24h32v8h-32zm88 128c0 13.253906-10.746094 24-24 24h-96c-13.253906 0-24-10.746094-24-24v-64c.027344-22.082031 17.917969-39.972656 40-40h64c22.082031.027344 39.972656 17.917969 40 40zm0 0" fill="url(#f)"/><path d="m120 304h16c4.417969 0 8 3.582031 8 8h16c0-13.253906-10.746094-24-24-24v-8h-16v8c-13.253906 0-24 10.746094-24 24s10.746094 24 24 24h16c4.417969 0 8 3.582031 8 8s-3.582031 8-8 8h-16c-4.417969 0-8-3.582031-8-8h-16c0 13.253906 10.746094 24 24 24v8h16v-8c13.253906 0 24-10.746094 24-24s-10.746094-24-24-24h-16c-4.417969 0-8-3.582031-8-8s3.582031-8 8-8zm0 0" fill="url(#f)"/><path d="m48 96h64v16h-64zm0 0" fill="url(#g)"/><path d="m128 96h32v16h-32zm0 0" fill="url(#h)"/><path d="m48 64h32v16h-32zm0 0" fill="url(#i)"/><path d="m96 64h64v16h-64zm0 0" fill="url(#f)"/></svg>